<?xml version="1.0" standalone="no"?>
<!DOCTYPE svg PUBLIC "-//W3C//DTD SVG 20010904//EN"
 "http://www.w3.org/TR/2001/REC-SVG-20010904/DTD/svg10.dtd">
<svg version="1.0" xmlns="http://www.w3.org/2000/svg"
 width="600.000000pt" height="593.000000pt" viewBox="0 0 600.000000 593.000000"
 preserveAspectRatio="xMidYMid meet">

<g transform="translate(0.000000,593.000000) scale(0.100000,-0.100000)"
fill="#000000" stroke="none">
<path d="M3555 5884 c-8 -20 -15 -40 -15 -45 0 -5 39 -29 88 -53 248 -125 468
-348 636 -644 76 -134 178 -384 210 -513 23 -96 15 -90 91 -74 14 3 25 12 25
19 0 36 -56 221 -100 331 -153 383 -358 664 -629 859 -79 56 -255 155 -278
156 -7 0 -20 -16 -28 -36z"/>
<path d="M3275 5510 c-3 -5 -12 -26 -19 -47 l-14 -39 47 -18 c122 -48 257
-143 367 -257 154 -160 269 -396 305 -627 l13 -82 53 0 c50 0 53 1 49 23 -3
12 -13 60 -22 107 -64 330 -265 647 -516 813 -125 82 -252 144 -263 127z"/>
<path d="M5774 4617 c-4 -6 -4 -9 1 -5 10 9 74 -18 101 -43 11 -10 23 -17 26
-13 3 3 5 -3 5 -13 -1 -10 4 -17 11 -15 6 1 12 -1 13 -5 0 -5 2 -18 3 -30 2
-13 11 -33 22 -45 10 -12 15 -19 9 -16 -6 4 -11 -16 -12 -49 -1 -53 -13 -90
-53 -165 -12 -22 -16 -39 -10 -43 12 -8 63 92 54 107 -4 6 -3 8 3 5 13 -8 30
37 39 102 8 65 -19 126 -77 173 -56 44 -125 73 -135 55z"/>
<path d="M5870 4139 c-6 -11 -10 -25 -8 -30 2 -5 8 4 15 21 13 34 9 40 -7 9z"/>
<path d="M5834 4053 c-4 -21 -13 -50 -21 -65 -7 -16 -11 -28 -9 -28 9 0 33 52
44 93 6 20 6 37 2 37 -5 0 -12 -17 -16 -37z"/>
<path d="M5776 3895 c-3 -9 -6 -22 -5 -28 0 -7 5 -1 10 12 5 13 8 26 5 28 -2
2 -6 -3 -10 -12z"/>
<path d="M5802 2330 c0 -14 2 -19 5 -12 2 6 2 18 0 25 -3 6 -5 1 -5 -13z"/>
<path d="M5807 2273 c-2 -5 0 -21 4 -38 7 -29 7 -29 8 8 1 35 -3 46 -12 30z"/>
<path d="M548 2177 l-46 -9 18 -67 c25 -90 80 -218 131 -305 160 -273 380
-461 649 -554 143 -49 136 -50 147 7 l10 50 -86 26 c-168 53 -326 150 -451
277 -123 126 -241 321 -290 483 -33 107 -28 102 -82 92z"/>
<path d="M5816 2175 c4 -8 8 -15 10 -15 2 0 4 7 4 15 0 8 -4 15 -10 15 -5 0
-7 -7 -4 -15z"/>
<path d="M5823 2105 c0 -27 2 -38 4 -22 2 15 2 37 0 50 -2 12 -4 0 -4 -28z"/>
<path d="M5821 2024 c0 -11 3 -14 6 -6 3 7 2 16 -1 19 -3 4 -6 -2 -5 -13z"/>
<path d="M40 1996 c-22 -8 -34 -19 -32 -29 1 -8 23 -62 48 -119 228 -522 596
-898 1027 -1050 60 -21 111 -37 112 -36 3 5 25 85 25 91 0 3 -37 17 -82 32
-257 84 -519 284 -720 548 -115 151 -244 381 -307 550 -12 30 -20 31 -71 13z"/>
<path d="M5818 1820 c-5 -63 -12 -129 -17 -146 -5 -17 -5 -37 -1 -44 9 -15 33
199 28 260 -2 26 -6 -3 -10 -70z"/>
<path d="M5780 1603 c0 -5 5 -15 10 -23 8 -12 10 -11 10 8 0 12 -4 22 -10 22
-5 0 -10 -3 -10 -7z"/>
<path d="M5777 1533 c-3 -15 -9 -36 -12 -45 -4 -10 -3 -18 3 -18 6 0 13 18 17
41 8 45 1 65 -8 22z"/>
<path d="M5749 1403 c-5 -14 -8 -30 -6 -36 1 -5 8 7 14 27 13 42 7 49 -8 9z"/>
<path d="M5726 1333 c-6 -14 -5 -15 5 -6 7 7 10 15 7 18 -3 3 -9 -2 -12 -12z"/>
<path d="M5712 1285 c-7 -14 -12 -35 -12 -45 0 -11 -5 -19 -11 -17 -11 2 -21
-23 -20 -56 0 -9 -4 -15 -9 -12 -6 4 -7 -2 -3 -11 5 -13 3 -15 -7 -9 -10 6
-12 4 -7 -8 3 -10 2 -17 -3 -17 -5 0 -6 -7 -3 -17 4 -10 2 -14 -5 -9 -13 8
-36 -30 -27 -44 3 -6 1 -10 -4 -10 -6 0 -11 -7 -11 -15 0 -8 -4 -15 -10 -15
-5 0 -10 -8 -10 -18 0 -10 -8 -27 -19 -38 -10 -11 -24 -37 -31 -57 -8 -20 -18
-35 -24 -34 -6 1 -10 -4 -8 -10 1 -7 -3 -13 -9 -13 -5 0 -8 -4 -4 -10 3 -5 -6
-17 -20 -26 -14 -9 -24 -19 -21 -21 2 -2 -24 -33 -57 -68 -81 -83 -107 -113
-107 -125 0 -6 -4 -10 -10 -10 -5 0 -14 -10 -21 -22 -6 -13 29 18 78 67 78 78
144 160 220 270 34 49 159 305 178 363 18 57 16 79 -3 37z"/>
<path d="M5200 522 c-8 -4 -16 -13 -18 -20 -2 -10 2 -10 18 0 11 7 20 16 20
20 0 9 0 9 -20 0z"/>
<path d="M5133 476 c4 -9 -2 -17 -15 -21 -11 -4 -38 -25 -60 -46 -22 -21 -46
-39 -53 -39 -6 0 -20 -9 -30 -20 -10 -11 -28 -20 -39 -20 -12 0 -27 -9 -34
-20 -7 -11 -17 -20 -23 -20 -6 0 -22 -9 -36 -20 -14 -11 -23 -20 -20 -20 12 0
82 42 89 54 4 6 8 7 8 3 0 -7 100 53 126 76 8 7 36 28 64 47 54 38 58 45 34
54 -11 4 -15 2 -11 -8z"/>
<path d="M4745 220 c-33 -16 -75 -35 -92 -42 -28 -11 -45 -28 -28 -28 10 0
185 90 185 95 0 7 1 7 -65 -25z"/>
<path d="M4600 161 c0 -5 -16 -15 -36 -21 -19 -7 -33 -14 -31 -17 8 -7 77 25
77 36 0 6 -2 11 -5 11 -3 0 -5 -4 -5 -9z"/>
<path d="M4425 90 c-13 -5 -14 -9 -5 -9 8 0 24 4 35 9 13 5 14 9 5 9 -8 0 -24
-4 -35 -9z"/>
<path d="M4377 79 c7 -7 15 -10 18 -7 3 3 -2 9 -12 12 -14 6 -15 5 -6 -5z"/>
<path d="M4348 63 c7 -3 16 -2 19 1 4 3 -2 6 -13 5 -11 0 -14 -3 -6 -6z"/>
<path d="M3938 3 c12 -2 32 -2 45 0 12 2 2 4 -23 4 -25 0 -35 -2 -22 -4z"/>
</g>
</svg>
